<svg width="79" height="80" viewBox="0 0 79 80" fill="none" xmlns="http://www.w3.org/2000/svg">
<g clip-path="url(#clip0_29_1610)">
<path d="M40.1483 49.8353H38.8532C38.8532 39.3503 30.4288 30.8193 20.0744 30.8193C9.71996 30.8193 1.29511 39.3498 1.29511 49.8353H0C0 38.6263 9.0055 29.5078 20.0739 29.5078C31.1423 29.5078 40.1483 38.6263 40.1483 49.8353Z" fill="black"/>
<path d="M79.0001 49.8353H77.705C77.705 39.3503 69.2806 30.8193 58.9252 30.8193C48.5713 30.8193 40.1469 39.3503 40.1469 49.8353H38.8518C38.8518 38.6263 47.8563 29.5078 58.9252 29.5078C69.9941 29.5078 79.0001 38.6263 79.0001 49.8353Z" fill="black"/>
<path d="M58.9252 50.4911C47.8563 50.4911 38.8518 41.3726 38.8518 30.1636H40.1469C40.1469 40.6486 48.5713 49.1796 58.9252 49.1796C69.2806 49.1796 77.705 40.6486 77.705 30.1636H79.0001C79.0001 41.3726 69.9941 50.4911 58.9252 50.4911Z" fill="black"/>
<path d="M20.0739 50.4911C9.0055 50.4911 0 41.3726 0 30.1636H1.29511C1.29511 40.6486 9.71947 49.1796 20.0739 49.1796C30.4283 49.1796 38.8532 40.6486 38.8532 30.1636H40.1483C40.1483 41.3726 31.1428 50.4911 20.0739 50.4911Z" fill="black"/>
<path d="M29.7839 40.6565V39.345C40.1379 39.345 48.5622 30.814 48.5622 20.3285C48.5622 9.843 40.1379 1.312 29.7839 1.312V0C40.8528 0 49.8573 9.1195 49.8573 20.328C49.8573 31.5365 40.8523 40.6565 29.7839 40.6565Z" fill="black"/>
<path d="M29.7839 79.9998V78.6883C40.1379 78.6883 48.5622 70.1573 48.5622 59.6708C48.5622 49.1858 40.1379 40.6548 29.7839 40.6548V39.3433C40.8528 39.3433 49.8573 48.4618 49.8573 59.6708C49.8573 70.8798 40.8523 79.9998 29.7839 79.9998Z" fill="black"/>
<path d="M49.2174 79.9998C38.1486 79.9998 29.144 70.8798 29.144 59.6708C29.144 48.4618 38.1486 39.3433 49.2174 39.3433V40.6548C38.8635 40.6548 30.4391 49.1858 30.4391 59.6708C30.4391 70.1573 38.8635 78.6883 49.2174 78.6883V79.9998Z" fill="black"/>
<path d="M49.2096 40.6565C38.1407 40.6565 29.1362 31.537 29.1362 20.3285C29.1362 9.12 38.1412 0 49.2096 0V1.3115C38.8557 1.3115 30.4313 9.8425 30.4313 20.328C30.4313 30.8135 38.8557 39.345 49.2096 39.345V40.6565Z" fill="black"/>
</g>
<defs>
<clipPath id="clip0_29_1610">
<rect width="79" height="80" fill="white"/>
</clipPath>
</defs>
</svg>
