<svg width="35" height="35" viewBox="0 0 35 35" fill="none" xmlns="http://www.w3.org/2000/svg">
<g clip-path="url(#clip0_12_65)">
<path d="M0.196777 0.233398V34.2334H34.1968V0.233398H0.196777ZM33.3172 0.748498L29.0254 5.04036C26.9176 2.99484 24.2851 1.48842 21.3495 0.748498H33.3172ZM17.4543 0.755086C21.8046 0.822448 25.7497 2.58152 28.6614 5.40437L17.4543 16.6114V0.755086ZM16.9392 16.6118L5.73198 5.40459C8.64365 2.58174 12.5887 0.822236 16.9392 0.755086V16.6118ZM16.5748 16.9758H0.718465C0.785615 12.6255 2.5449 8.68049 5.36775 5.76881L16.5748 16.9758ZM16.5748 17.4909L5.36775 28.698C2.5449 25.7863 0.785615 21.8412 0.718465 17.4909H16.5748ZM16.9392 17.855V33.7119C12.5887 33.6448 8.64365 31.8853 5.73198 29.0624L16.9392 17.855ZM17.4543 17.8554L28.6612 29.0622C25.7495 31.8851 21.8044 33.6444 17.4543 33.7115V17.8554ZM17.8183 17.4909H33.6753C33.6079 21.8412 31.8487 25.7865 29.0256 28.6982L17.8183 17.4909ZM17.8183 16.9758L29.0256 5.7686C31.8484 8.68027 33.6079 12.6253 33.6751 16.9758H17.8183ZM5.36796 5.04057L1.07589 0.748498H13.0443C10.1084 1.48842 7.47575 2.99505 5.36796 5.04057ZM0.711877 1.11294L5.00374 5.4048C2.95821 7.51259 1.4518 10.145 0.711877 13.0807V1.11294ZM5.00374 29.062L0.711877 33.3539V21.3861C1.4518 24.3218 2.95821 26.9542 5.00374 29.062ZM1.07589 33.7183L5.36796 29.4262C7.47575 31.4718 10.1084 32.9784 13.0443 33.7183H1.07589ZM29.0254 29.4264L33.3172 33.7183H21.3495C24.2851 32.9784 26.9176 31.472 29.0254 29.4264ZM33.6817 33.3543L29.3896 29.0622C31.4351 26.9544 32.9418 24.3218 33.6817 21.3859V33.3543ZM29.3896 5.40459L33.6817 1.11251V13.0809C32.9418 10.145 31.4351 7.51237 29.3896 5.40459Z" fill="white"/>
</g>
<defs>
<clipPath id="clip0_12_65">
<rect width="34" height="34" fill="white" transform="translate(0.196777 0.233398)"/>
</clipPath>
</defs>
</svg>
